<svg data-v-423bf9ae="" xmlns="http://www.w3.org/2000/svg" viewBox="0 0 130.08991124140084 163" class="iconAbove"><!----><!----><!----><g data-v-423bf9ae="" id="f2107492-dabc-40ac-82f8-0df6d80f9eba" fill="white" transform="matrix(5.395683046021815,0,0,5.395683046021815,-2.8597110350262938,86.70503587341713)"><path d="M0.92 8.54C0.92 11.48 5.88 10.02 5.89 12.05C5.91 12.88 5.10 13.29 3.92 13.29C2.70 13.29 1.72 12.75 1.53 11.69L0.53 11.69C0.76 13.34 2.24 14.14 3.89 14.14C5.61 14.14 6.92 13.40 6.92 12.05C6.92 9.14 1.95 10.57 1.95 8.54C1.95 7.94 2.55 7.43 3.82 7.43C5.22 7.43 5.71 8.13 5.81 8.99L6.78 8.99C6.69 7.70 5.78 6.58 3.85 6.58C1.92 6.58 0.92 7.43 0.92 8.54ZM11.54 6.58C9.81 6.58 8.60 7.56 8.50 9.02L9.49 9.02C9.55 8.18 10.35 7.49 11.49 7.49C12.78 7.49 13.54 8.16 13.54 9.67L13.54 9.94L11.27 9.93C9.35 9.93 8.20 10.79 8.20 12.01C8.20 13.27 9.25 14.14 10.60 14.14C11.89 14.14 12.91 13.55 13.66 12.96L13.87 14L14.56 14L14.56 9.67C14.56 7.70 13.47 6.58 11.54 6.58ZM9.24 12.00C9.24 11.19 9.95 10.79 11.28 10.79L13.54 10.79L13.54 12.11C12.78 12.70 11.83 13.22 10.81 13.22C9.95 13.22 9.24 12.78 9.24 12.00ZM17.50 5.10C17.93 5.10 18.30 4.73 18.30 4.27C18.30 3.85 17.93 3.50 17.50 3.50C17.05 3.50 16.70 3.85 16.70 4.27C16.70 4.73 17.05 5.10 17.50 5.10ZM17.99 6.72L16.94 6.72L16.94 14L17.99 14ZM23.32 3.96C23.80 3.96 24.15 4.06 24.53 4.19L24.64 3.30C24.22 3.14 23.70 3.02 23.17 3.02C21.83 3.02 21.10 3.72 21.10 5.22L21.10 6.72L19.52 6.72L19.52 7.62L21.10 7.62L21.10 14.08L22.15 14.08L22.15 7.62L24.50 7.62L24.50 6.72L22.15 6.72L22.15 5.22C22.15 4.30 22.54 3.96 23.32 3.96Z"></path></g><!----><g data-v-423bf9ae="" id="0d4970f5-46ed-4669-a8c7-7cee5190bfbd" transform="matrix(3.340869761862972,0,0,3.340869761862972,20.999999046325684,-9.5367431640625e-7)" stroke="none" fill="white"><path d="M14.305 18.042l8.605 8.603s1.049 1.05 2.917-.818c1.868-1.868.818-2.917.818-2.917l-7.823-7.823c-1.355.367-2.42.773-2.802 1.156l-1.715 1.799zM12.336 10.489L6.883 5.037 5.845 2.616 1.847 0 0 1.847l2.615 3.998 2.421 1.039 5.414 5.413 1.196-.962c.248-.253.475-.541.69-.846z"></path><path d="M26.865 4.687L21.689 6.93l-1.005-2.431.11-1.219 4.324-1.885S22.679-.157 20.129.397c-2.55.555-3.104.664-3.658 2.329-.554 1.662-1.33 6.873-3.991 9.534L.961 21.523s-1.998 2.25.002 4.25 4.249.001 4.249.001l9.93-10.411c1.663-1.663 8.979-2.55 8.979-2.55l-1.219-2.95c2.834-1.389 3.963-5.176 3.963-5.176zM4.324 24.775a1.672 1.672 0 1 1-2.365-2.365 1.672 1.672 0 0 1 2.365 2.365z"></path></g><!----></svg>